<svg width="26" height="31" viewBox="0 0 26 31" fill="none" xmlns="http://www.w3.org/2000/svg">
<path d="M0.839966 23.072C2.67488 14.953 6.59544 7.45286 12.2146 1.31201C12.3145 1.20331 12.4359 1.11653 12.5711 1.05717C12.7063 0.997813 12.8523 0.967163 13 0.967163C13.1476 0.967163 13.2936 0.997813 13.4288 1.05717C13.564 1.11653 13.6854 1.20331 13.7853 1.31201C14.0066 1.55201 14.1906 1.75467 14.336 1.91867C19.6647 7.94784 23.3874 15.2231 25.16 23.072C22.3053 23.6733 19.3733 24.068 16.3813 24.2373L13.596 29.808C13.5405 29.9186 13.4554 30.0116 13.3502 30.0766C13.2449 30.1415 13.1237 30.176 13 30.176C12.8763 30.176 12.755 30.1415 12.6497 30.0766C12.5445 30.0116 12.4594 29.9186 12.404 29.808L9.61863 24.2373C6.66724 24.0705 3.73267 23.681 0.839966 23.072ZM13 19C14.0608 19 15.0782 18.5786 15.8284 17.8284C16.5785 17.0783 17 16.0609 17 15C17 13.9391 16.5785 12.9217 15.8284 12.1716C15.0782 11.4214 14.0608 11 13 11C11.9391 11 10.9217 11.4214 10.1715 12.1716C9.42139 12.9217 8.99996 13.9391 8.99996 15C8.99996 16.0609 9.42139 17.0783 10.1715 17.8284C10.9217 18.5786 11.9391 19 13 19Z" fill="#F1F1F1"/>
</svg>
