<svg width="51" height="52" viewBox="0 0 51 52" fill="none" xmlns="http://www.w3.org/2000/svg">
<g clip-path="url(#clip0_8_385)">
<path d="M28.6378 20.2723C26.8839 22.0262 24.0278 22.0262 22.2739 20.2723C20.52 18.5184 20.52 15.6623 22.2739 13.9084C24.0278 12.1544 26.8839 12.1544 28.6378 13.9084C30.3917 15.6623 30.3917 18.5184 28.6378 20.2723ZM23.5467 15.1811C22.4941 16.2337 22.4941 17.9469 23.5467 18.9995C24.5993 20.0521 26.3124 20.0521 27.365 18.9995C28.4176 17.9469 28.4176 16.2337 27.365 15.1811C26.3124 14.1285 24.5993 14.1285 23.5467 15.1811Z" fill="#F1F1F1"/>
<path d="M26.0922 50.8193C25.9268 50.9847 25.6989 51.0828 25.4558 51.084C25.1071 51.084 24.7876 50.8817 24.6412 50.5647C21.2149 43.2207 20.5429 38.4299 22.6442 36.3285C23.3379 35.6349 24.2836 35.2849 25.4558 35.2836C27.309 35.2836 28.2649 36.1733 28.7409 36.9191C30.2352 39.2636 29.404 43.8546 26.273 50.5647C26.2271 50.6615 26.166 50.748 26.0935 50.8206L26.0922 50.8193ZM23.917 37.5988C23.287 38.2288 23.0973 39.5233 23.3697 41.3408C23.637 43.1278 24.337 45.3552 25.4558 47.9784C26.4715 45.5957 27.1436 43.5364 27.4592 41.8385C27.8843 39.5474 27.5648 38.4236 27.2225 37.8852C26.8801 37.3468 26.301 37.0833 25.4558 37.0833C24.7685 37.0833 24.2658 37.2526 23.917 37.6013L23.917 37.5988Z" fill="#F1F1F1"/>
<path d="M24.8194 1.18029C21.5165 4.48319 19.1338 7.98591 17.735 11.5943C16.5831 14.5688 16.0944 17.6133 16.284 20.6464C16.3197 21.2115 16.3782 21.7613 16.4559 22.2946C15.4313 23.4643 14.7452 25.0235 14.4143 26.9327C14.133 28.5479 14.105 30.424 14.3278 32.5101C14.702 36.0153 15.6527 38.8906 15.6922 39.0115C15.8322 39.429 16.2535 39.6848 16.6875 39.6148C16.881 39.5843 17.0515 39.4926 17.1814 39.3628C17.3443 39.1999 17.4448 38.9746 17.4461 38.7289C17.4461 38.7162 17.4563 37.5096 17.9069 35.8855C18.2785 34.5465 19.0282 32.659 20.5224 30.9636C21.9581 31.5924 24.3472 31.6726 25.4545 31.6726C26.5618 31.6726 28.9509 31.5924 30.3866 30.9636C31.8808 32.659 32.6305 34.5465 33.0022 35.8855C33.4527 37.5121 33.4629 38.7162 33.4629 38.7264C33.4629 39.1668 33.7837 39.5435 34.219 39.6148C34.513 39.6619 34.8006 39.5626 35.0004 39.3628C35.0972 39.2661 35.1723 39.1477 35.2168 39.0115C35.2563 38.8906 36.2071 36.0153 36.5813 32.5101C36.804 30.424 36.776 28.5479 36.4947 26.9327C36.1625 25.0222 35.4765 23.4656 34.4531 22.2946C34.5308 21.7639 34.5893 21.214 34.625 20.6464C34.8146 17.6133 34.3259 14.5688 33.174 11.5943C31.7765 7.98719 29.3925 4.48319 26.0896 1.18029L25.4532 0.543898L24.8168 1.1803L24.8194 1.18029ZM16.438 34.5287C15.8907 31.5555 15.5624 27.5182 16.9663 24.7422C17.5874 27.0154 18.4885 28.7719 19.1771 29.7685C17.7923 31.334 16.9497 33.0345 16.438 34.5287ZM34.471 34.5236C33.9593 33.0294 33.118 31.3302 31.7332 29.7672C32.4205 28.7719 33.3229 27.0142 33.944 24.7435C35.3428 27.5169 35.0157 31.5529 34.4697 34.5249L34.471 34.5236ZM32.8303 20.5344C32.5185 25.5174 30.3051 28.7872 29.9106 29.1817C29.908 29.1843 29.642 29.4401 28.4443 29.6476C27.6093 29.7927 26.5466 29.8728 25.4571 29.8728C24.3675 29.8728 23.3048 29.7927 22.4698 29.6476C21.2721 29.4401 21.0061 29.1843 21.0036 29.1817C20.609 28.7872 18.3956 25.5174 18.0838 20.5344C17.7121 14.5726 20.2577 8.56249 25.4583 3.10476C30.659 8.56249 33.2058 14.5713 32.8329 20.5344H32.8303Z" fill="#F1F1F1"/>
</g>
<defs>
<clipPath id="clip0_8_385">
<rect width="36" height="36" fill="white" transform="translate(0 26) rotate(-45)"/>
</clipPath>
</defs>
</svg>
